<svg width="107" height="33" viewBox="0 0 107 33" fill="none" xmlns="http://www.w3.org/2000/svg">
<path d="M54.168 26H51.168L45.552 18.104L43.872 19.496V26H41.28V8.864H43.872V17.144C44.288 16.664 44.704 16.184 45.12 15.704C45.536 15.208 45.952 14.72 46.368 14.24L51 8.864H53.976L47.424 16.352L54.168 26ZM62.5401 12.824C62.7641 12.824 63.0041 12.84 63.2601 12.872C63.5321 12.888 63.7641 12.912 63.9561 12.944L63.6921 15.32C63.2761 15.208 62.8441 15.152 62.3961 15.152C61.7561 15.152 61.1481 15.312 60.5721 15.632C60.0121 15.952 59.5561 16.416 59.2041 17.024C58.8681 17.616 58.7001 18.336 58.7001 19.184V26H56.1561V13.064H58.1721L58.5081 15.368H58.6041C59.0201 14.68 59.5561 14.088 60.2121 13.592C60.8681 13.08 61.6441 12.824 62.5401 12.824ZM70.9706 12.824C72.6666 12.824 74.0026 13.352 74.9786 14.408C75.9546 15.448 76.4426 16.872 76.4426 18.68V20.072H67.7546C67.7866 21.4 68.1306 22.416 68.7866 23.12C69.4586 23.824 70.3946 24.176 71.5946 24.176C72.4266 24.176 73.1626 24.104 73.8026 23.96C74.4586 23.8 75.1306 23.568 75.8186 23.264V25.376C75.1626 25.664 74.5066 25.88 73.8506 26.024C73.1946 26.168 72.4106 26.24 71.4986 26.24C70.2346 26.24 69.1226 25.992 68.1626 25.496C67.2186 25 66.4746 24.264 65.9306 23.288C65.4026 22.296 65.1386 21.08 65.1386 19.64C65.1386 18.184 65.3786 16.952 65.8586 15.944C66.3546 14.936 67.0346 14.168 67.8986 13.64C68.7786 13.096 69.8026 12.824 70.9706 12.824ZM70.9706 14.792C70.0586 14.792 69.3226 15.088 68.7626 15.68C68.2186 16.272 67.8986 17.112 67.8026 18.2H73.8986C73.8826 17.192 73.6346 16.376 73.1546 15.752C72.6906 15.112 71.9626 14.792 70.9706 14.792ZM84.705 12.824C86.401 12.824 87.737 13.352 88.713 14.408C89.689 15.448 90.177 16.872 90.177 18.68V20.072H81.489C81.521 21.4 81.865 22.416 82.521 23.12C83.193 23.824 84.129 24.176 85.329 24.176C86.161 24.176 86.897 24.104 87.537 23.96C88.193 23.8 88.865 23.568 89.553 23.264V25.376C88.897 25.664 88.241 25.88 87.585 26.024C86.929 26.168 86.145 26.24 85.233 26.24C83.969 26.24 82.857 25.992 81.897 25.496C80.953 25 80.209 24.264 79.665 23.288C79.137 22.296 78.873 21.08 78.873 19.64C78.873 18.184 79.113 16.952 79.593 15.944C80.089 14.936 80.769 14.168 81.633 13.64C82.513 13.096 83.537 12.824 84.705 12.824ZM84.705 14.792C83.793 14.792 83.057 15.088 82.497 15.68C81.953 16.272 81.633 17.112 81.537 18.2H87.633C87.617 17.192 87.369 16.376 86.889 15.752C86.425 15.112 85.697 14.792 84.705 14.792ZM97.7914 26.24C96.2394 26.24 94.9834 25.68 94.0234 24.56C93.0794 23.44 92.6074 21.776 92.6074 19.568C92.6074 17.344 93.0874 15.664 94.0474 14.528C95.0074 13.392 96.2714 12.824 97.8394 12.824C98.8154 12.824 99.6154 13.008 100.239 13.376C100.863 13.744 101.367 14.192 101.751 14.72H101.895C101.863 14.512 101.823 14.192 101.775 13.76C101.727 13.328 101.703 12.944 101.703 12.608V7.76H104.247V26H102.255L101.823 24.272H101.703C101.335 24.832 100.839 25.304 100.215 25.688C99.5914 26.056 98.7834 26.24 97.7914 26.24ZM98.3914 24.152C99.6394 24.152 100.519 23.808 101.031 23.12C101.543 22.416 101.799 21.368 101.799 19.976V19.592C101.799 18.088 101.551 16.936 101.055 16.136C100.575 15.32 99.6794 14.912 98.3674 14.912C97.3274 14.912 96.5434 15.336 96.0154 16.184C95.4874 17.016 95.2234 18.16 95.2234 19.616C95.2234 21.072 95.4874 22.192 96.0154 22.976C96.5434 23.76 97.3354 24.152 98.3914 24.152Z" fill="white"/>
<rect y="1" width="30" height="30" rx="6" fill="#FFA182"/>
<path d="M10.2355 22.6781C9.39285 22.6781 8.70972 21.995 8.70972 21.1523V10.7516C8.70972 9.90896 9.39285 9.22583 10.2355 9.22583C11.0782 9.22583 11.7614 9.90896 11.7614 10.7516V21.1523C11.7614 21.995 11.0782 22.6781 10.2355 22.6781ZM13.442 18.3282C12.9146 16.9024 12.8908 15.3391 13.3746 13.8979L14.6159 10.2C14.8112 9.61797 15.3565 9.22583 15.9704 9.22583C16.9452 9.22583 17.6337 10.1805 17.3262 11.1054L16.0882 14.8285C15.809 15.6681 15.8214 16.5774 16.1236 17.4091L17.3523 20.7914C17.6855 21.7086 17.0063 22.6781 16.0304 22.6781C15.4418 22.6781 14.9155 22.3116 14.7113 21.7596L13.442 18.3282Z" fill="#232522"/>
<path d="M19.0117 21.3329C19.0117 20.7564 19.293 20.3272 19.8558 20.0453C20.101 19.93 20.3608 19.8724 20.6349 19.8724C21.2842 19.8724 21.7603 20.1222 22.0633 20.6219C22.1932 20.8396 22.2581 21.0767 22.2581 21.3329C22.2581 21.9222 21.9695 22.345 21.3924 22.6013C21.1471 22.7166 20.8946 22.7742 20.6349 22.7742C19.9712 22.7742 19.495 22.518 19.2065 22.0055C19.0766 21.7877 19.0117 21.5635 19.0117 21.3329Z" fill="#232522"/>
</svg>
